<mxfile host="app.diagrams.net" agent="Mozilla/5.0 (Windows NT 10.0; Win64; x64) AppleWebKit/537.36 (KHTML, like Gecko) Chrome/131.0.0.0 Safari/537.36" version="24.9.1">
  <diagram name="Page-1" id="-J_Lm4RNS4wThmYNDeg7">
    <mxGraphModel dx="288" dy="145" grid="1" gridSize="10" guides="1" tooltips="1" connect="1" arrows="1" fold="1" page="1" pageScale="1" pageWidth="1169" pageHeight="827" math="0" shadow="0">
      <root>
        <mxCell id="0" />
        <mxCell id="1" parent="0" />
        <mxCell id="QG6vh3K37DUtd-4cwEf6-47" value="" style="ellipse;whiteSpace=wrap;html=1;aspect=fixed;" vertex="1" parent="1">
          <mxGeometry x="520" y="120" width="40" height="40" as="geometry" />
        </mxCell>
        <mxCell id="QG6vh3K37DUtd-4cwEf6-38" value="" style="ellipse;whiteSpace=wrap;html=1;aspect=fixed;" vertex="1" parent="1">
          <mxGeometry x="520" y="200" width="40" height="40" as="geometry" />
        </mxCell>
        <mxCell id="QG6vh3K37DUtd-4cwEf6-5" value="" style="verticalLabelPosition=bottom;shadow=0;dashed=0;align=center;html=1;verticalAlign=top;shape=mxgraph.electrical.abstract.multiplier;" vertex="1" parent="1">
          <mxGeometry x="520" y="120" width="40" height="40" as="geometry" />
        </mxCell>
        <mxCell id="QG6vh3K37DUtd-4cwEf6-6" value="" style="verticalLabelPosition=bottom;shadow=0;dashed=0;align=center;html=1;verticalAlign=top;shape=mxgraph.electrical.abstract.multiplier;" vertex="1" parent="1">
          <mxGeometry x="520" y="200" width="40" height="40" as="geometry" />
        </mxCell>
        <mxCell id="QG6vh3K37DUtd-4cwEf6-7" value="DUT" style="rounded=1;whiteSpace=wrap;html=1;" vertex="1" parent="1">
          <mxGeometry x="380" y="120" width="80" height="40" as="geometry" />
        </mxCell>
        <mxCell id="QG6vh3K37DUtd-4cwEf6-9" value="REF" style="rounded=1;whiteSpace=wrap;html=1;" vertex="1" parent="1">
          <mxGeometry x="380" y="200" width="80" height="40" as="geometry" />
        </mxCell>
        <mxCell id="QG6vh3K37DUtd-4cwEf6-10" value="" style="group" vertex="1" connectable="0" parent="1">
          <mxGeometry x="200" y="260" width="40" height="40" as="geometry" />
        </mxCell>
        <mxCell id="QG6vh3K37DUtd-4cwEf6-3" value="" style="ellipse;whiteSpace=wrap;html=1;aspect=fixed;" vertex="1" parent="QG6vh3K37DUtd-4cwEf6-10">
          <mxGeometry width="40" height="40" as="geometry" />
        </mxCell>
        <mxCell id="QG6vh3K37DUtd-4cwEf6-4" value="" style="pointerEvents=1;verticalLabelPosition=bottom;shadow=0;dashed=0;align=center;html=1;verticalAlign=top;shape=mxgraph.electrical.waveforms.sine_wave;" vertex="1" parent="QG6vh3K37DUtd-4cwEf6-10">
          <mxGeometry x="10" y="15" width="20" height="10" as="geometry" />
        </mxCell>
        <mxCell id="QG6vh3K37DUtd-4cwEf6-11" value="" style="group" vertex="1" connectable="0" parent="1">
          <mxGeometry x="200" y="160" width="40" height="40" as="geometry" />
        </mxCell>
        <mxCell id="QG6vh3K37DUtd-4cwEf6-1" value="" style="ellipse;whiteSpace=wrap;html=1;aspect=fixed;" vertex="1" parent="QG6vh3K37DUtd-4cwEf6-11">
          <mxGeometry width="40" height="40" as="geometry" />
        </mxCell>
        <mxCell id="QG6vh3K37DUtd-4cwEf6-2" value="" style="pointerEvents=1;verticalLabelPosition=bottom;shadow=0;dashed=0;align=center;html=1;verticalAlign=top;shape=mxgraph.electrical.waveforms.sine_wave;" vertex="1" parent="QG6vh3K37DUtd-4cwEf6-11">
          <mxGeometry x="10" y="15" width="20" height="10" as="geometry" />
        </mxCell>
        <mxCell id="QG6vh3K37DUtd-4cwEf6-19" value="" style="group" vertex="1" connectable="0" parent="1">
          <mxGeometry x="280" y="160" width="60" height="40" as="geometry" />
        </mxCell>
        <mxCell id="QG6vh3K37DUtd-4cwEf6-12" value="" style="rounded=0;whiteSpace=wrap;html=1;" vertex="1" parent="QG6vh3K37DUtd-4cwEf6-19">
          <mxGeometry width="60" height="40" as="geometry" />
        </mxCell>
        <mxCell id="QG6vh3K37DUtd-4cwEf6-13" value="" style="endArrow=none;html=1;rounded=0;" edge="1" parent="QG6vh3K37DUtd-4cwEf6-19">
          <mxGeometry width="50" height="50" relative="1" as="geometry">
            <mxPoint y="20" as="sourcePoint" />
            <mxPoint x="20" y="20" as="targetPoint" />
          </mxGeometry>
        </mxCell>
        <mxCell id="QG6vh3K37DUtd-4cwEf6-14" value="" style="endArrow=none;html=1;rounded=0;entryX=1;entryY=0.25;entryDx=0;entryDy=0;" edge="1" parent="QG6vh3K37DUtd-4cwEf6-19" target="QG6vh3K37DUtd-4cwEf6-12">
          <mxGeometry width="50" height="50" relative="1" as="geometry">
            <mxPoint x="30" y="10" as="sourcePoint" />
            <mxPoint x="50" y="10" as="targetPoint" />
          </mxGeometry>
        </mxCell>
        <mxCell id="QG6vh3K37DUtd-4cwEf6-15" value="" style="endArrow=none;html=1;rounded=0;entryX=1;entryY=0.75;entryDx=0;entryDy=0;" edge="1" parent="QG6vh3K37DUtd-4cwEf6-19" target="QG6vh3K37DUtd-4cwEf6-12">
          <mxGeometry width="50" height="50" relative="1" as="geometry">
            <mxPoint x="30" y="30" as="sourcePoint" />
            <mxPoint x="50" y="30" as="targetPoint" />
          </mxGeometry>
        </mxCell>
        <mxCell id="QG6vh3K37DUtd-4cwEf6-17" value="" style="endArrow=none;html=1;rounded=0;" edge="1" parent="QG6vh3K37DUtd-4cwEf6-19">
          <mxGeometry width="50" height="50" relative="1" as="geometry">
            <mxPoint x="20" y="20" as="sourcePoint" />
            <mxPoint x="30" y="10" as="targetPoint" />
          </mxGeometry>
        </mxCell>
        <mxCell id="QG6vh3K37DUtd-4cwEf6-18" value="" style="endArrow=none;html=1;rounded=0;" edge="1" parent="QG6vh3K37DUtd-4cwEf6-19">
          <mxGeometry width="50" height="50" relative="1" as="geometry">
            <mxPoint x="20" y="20" as="sourcePoint" />
            <mxPoint x="30" y="30" as="targetPoint" />
          </mxGeometry>
        </mxCell>
        <mxCell id="QG6vh3K37DUtd-4cwEf6-20" value="" style="group" vertex="1" connectable="0" parent="1">
          <mxGeometry x="280" y="260" width="60" height="40" as="geometry" />
        </mxCell>
        <mxCell id="QG6vh3K37DUtd-4cwEf6-21" value="" style="rounded=0;whiteSpace=wrap;html=1;" vertex="1" parent="QG6vh3K37DUtd-4cwEf6-20">
          <mxGeometry width="60" height="40" as="geometry" />
        </mxCell>
        <mxCell id="QG6vh3K37DUtd-4cwEf6-22" value="" style="endArrow=none;html=1;rounded=0;" edge="1" parent="QG6vh3K37DUtd-4cwEf6-20">
          <mxGeometry width="50" height="50" relative="1" as="geometry">
            <mxPoint y="20" as="sourcePoint" />
            <mxPoint x="20" y="20" as="targetPoint" />
          </mxGeometry>
        </mxCell>
        <mxCell id="QG6vh3K37DUtd-4cwEf6-23" value="" style="endArrow=none;html=1;rounded=0;entryX=1;entryY=0.25;entryDx=0;entryDy=0;" edge="1" parent="QG6vh3K37DUtd-4cwEf6-20" target="QG6vh3K37DUtd-4cwEf6-21">
          <mxGeometry width="50" height="50" relative="1" as="geometry">
            <mxPoint x="30" y="10" as="sourcePoint" />
            <mxPoint x="50" y="10" as="targetPoint" />
          </mxGeometry>
        </mxCell>
        <mxCell id="QG6vh3K37DUtd-4cwEf6-24" value="" style="endArrow=none;html=1;rounded=0;entryX=1;entryY=0.75;entryDx=0;entryDy=0;" edge="1" parent="QG6vh3K37DUtd-4cwEf6-20" target="QG6vh3K37DUtd-4cwEf6-21">
          <mxGeometry width="50" height="50" relative="1" as="geometry">
            <mxPoint x="30" y="30" as="sourcePoint" />
            <mxPoint x="50" y="30" as="targetPoint" />
          </mxGeometry>
        </mxCell>
        <mxCell id="QG6vh3K37DUtd-4cwEf6-25" value="" style="endArrow=none;html=1;rounded=0;" edge="1" parent="QG6vh3K37DUtd-4cwEf6-20">
          <mxGeometry width="50" height="50" relative="1" as="geometry">
            <mxPoint x="20" y="20" as="sourcePoint" />
            <mxPoint x="30" y="10" as="targetPoint" />
          </mxGeometry>
        </mxCell>
        <mxCell id="QG6vh3K37DUtd-4cwEf6-26" value="" style="endArrow=none;html=1;rounded=0;" edge="1" parent="QG6vh3K37DUtd-4cwEf6-20">
          <mxGeometry width="50" height="50" relative="1" as="geometry">
            <mxPoint x="20" y="20" as="sourcePoint" />
            <mxPoint x="30" y="30" as="targetPoint" />
          </mxGeometry>
        </mxCell>
        <mxCell id="QG6vh3K37DUtd-4cwEf6-27" style="edgeStyle=orthogonalEdgeStyle;rounded=0;orthogonalLoop=1;jettySize=auto;html=1;exitX=1;exitY=0.5;exitDx=0;exitDy=0;entryX=0;entryY=0.5;entryDx=0;entryDy=0;" edge="1" parent="1" source="QG6vh3K37DUtd-4cwEf6-1" target="QG6vh3K37DUtd-4cwEf6-12">
          <mxGeometry relative="1" as="geometry" />
        </mxCell>
        <mxCell id="QG6vh3K37DUtd-4cwEf6-28" style="edgeStyle=orthogonalEdgeStyle;rounded=0;orthogonalLoop=1;jettySize=auto;html=1;exitX=1;exitY=0.25;exitDx=0;exitDy=0;entryX=0;entryY=0.5;entryDx=0;entryDy=0;" edge="1" parent="1" source="QG6vh3K37DUtd-4cwEf6-12" target="QG6vh3K37DUtd-4cwEf6-7">
          <mxGeometry relative="1" as="geometry" />
        </mxCell>
        <mxCell id="QG6vh3K37DUtd-4cwEf6-29" style="edgeStyle=orthogonalEdgeStyle;rounded=0;orthogonalLoop=1;jettySize=auto;html=1;exitX=1;exitY=0.75;exitDx=0;exitDy=0;entryX=0;entryY=0.5;entryDx=0;entryDy=0;" edge="1" parent="1" source="QG6vh3K37DUtd-4cwEf6-12" target="QG6vh3K37DUtd-4cwEf6-9">
          <mxGeometry relative="1" as="geometry" />
        </mxCell>
        <mxCell id="QG6vh3K37DUtd-4cwEf6-32" style="edgeStyle=orthogonalEdgeStyle;rounded=0;orthogonalLoop=1;jettySize=auto;html=1;exitX=1;exitY=0.5;exitDx=0;exitDy=0;entryX=0;entryY=0.5;entryDx=0;entryDy=0;" edge="1" parent="1" source="QG6vh3K37DUtd-4cwEf6-3" target="QG6vh3K37DUtd-4cwEf6-21">
          <mxGeometry relative="1" as="geometry" />
        </mxCell>
        <mxCell id="QG6vh3K37DUtd-4cwEf6-35" style="edgeStyle=orthogonalEdgeStyle;rounded=0;orthogonalLoop=1;jettySize=auto;html=1;exitX=1;exitY=0.5;exitDx=0;exitDy=0;entryX=0;entryY=0.5;entryDx=0;entryDy=0;entryPerimeter=0;" edge="1" parent="1" source="QG6vh3K37DUtd-4cwEf6-7" target="QG6vh3K37DUtd-4cwEf6-5">
          <mxGeometry relative="1" as="geometry" />
        </mxCell>
        <mxCell id="QG6vh3K37DUtd-4cwEf6-36" style="edgeStyle=orthogonalEdgeStyle;rounded=0;orthogonalLoop=1;jettySize=auto;html=1;exitX=1;exitY=0.5;exitDx=0;exitDy=0;entryX=0;entryY=0.5;entryDx=0;entryDy=0;entryPerimeter=0;" edge="1" parent="1" source="QG6vh3K37DUtd-4cwEf6-9" target="QG6vh3K37DUtd-4cwEf6-6">
          <mxGeometry relative="1" as="geometry" />
        </mxCell>
        <mxCell id="QG6vh3K37DUtd-4cwEf6-44" value="" style="endArrow=classic;html=1;rounded=0;entryX=0;entryY=1;entryDx=0;entryDy=0;exitX=1;exitY=0.75;exitDx=0;exitDy=0;" edge="1" parent="1" source="QG6vh3K37DUtd-4cwEf6-21" target="QG6vh3K37DUtd-4cwEf6-38">
          <mxGeometry width="50" height="50" relative="1" as="geometry">
            <mxPoint x="490" y="300" as="sourcePoint" />
            <mxPoint x="540" y="250" as="targetPoint" />
            <Array as="points">
              <mxPoint x="510" y="290" />
              <mxPoint x="510" y="250" />
            </Array>
          </mxGeometry>
        </mxCell>
        <mxCell id="QG6vh3K37DUtd-4cwEf6-48" value="" style="endArrow=classic;html=1;rounded=0;entryX=0;entryY=1;entryDx=0;entryDy=0;exitX=1;exitY=0.25;exitDx=0;exitDy=0;" edge="1" parent="1" source="QG6vh3K37DUtd-4cwEf6-21" target="QG6vh3K37DUtd-4cwEf6-47">
          <mxGeometry width="50" height="50" relative="1" as="geometry">
            <mxPoint x="480" y="260" as="sourcePoint" />
            <mxPoint x="530" y="210" as="targetPoint" />
            <Array as="points">
              <mxPoint x="490" y="270" />
              <mxPoint x="490" y="190" />
            </Array>
          </mxGeometry>
        </mxCell>
        <mxCell id="QG6vh3K37DUtd-4cwEf6-51" value="&amp;nbsp; &amp;nbsp;ADC" style="html=1;shadow=0;dashed=0;align=center;verticalAlign=middle;shape=mxgraph.arrows2.arrow;dy=0;dx=19.98;notch=0;rotation=0;direction=west;" vertex="1" parent="1">
          <mxGeometry x="600" y="120" width="60" height="40" as="geometry" />
        </mxCell>
        <mxCell id="QG6vh3K37DUtd-4cwEf6-53" style="edgeStyle=orthogonalEdgeStyle;rounded=0;orthogonalLoop=1;jettySize=auto;html=1;exitX=1;exitY=0.5;exitDx=0;exitDy=0;exitPerimeter=0;entryX=1;entryY=0.5;entryDx=0;entryDy=0;entryPerimeter=0;" edge="1" parent="1" source="QG6vh3K37DUtd-4cwEf6-5" target="QG6vh3K37DUtd-4cwEf6-51">
          <mxGeometry relative="1" as="geometry" />
        </mxCell>
        <mxCell id="QG6vh3K37DUtd-4cwEf6-54" style="edgeStyle=orthogonalEdgeStyle;rounded=0;orthogonalLoop=1;jettySize=auto;html=1;exitX=1;exitY=0.5;exitDx=0;exitDy=0;exitPerimeter=0;entryX=1;entryY=0.5;entryDx=0;entryDy=0;entryPerimeter=0;" edge="1" parent="1" source="QG6vh3K37DUtd-4cwEf6-6" target="QG6vh3K37DUtd-4cwEf6-55">
          <mxGeometry relative="1" as="geometry">
            <mxPoint x="600" y="220" as="targetPoint" />
          </mxGeometry>
        </mxCell>
        <mxCell id="QG6vh3K37DUtd-4cwEf6-55" value="&amp;nbsp; &amp;nbsp;ADC" style="html=1;shadow=0;dashed=0;align=center;verticalAlign=middle;shape=mxgraph.arrows2.arrow;dy=0;dx=19.98;notch=0;rotation=0;direction=west;" vertex="1" parent="1">
          <mxGeometry x="600" y="200" width="60" height="40" as="geometry" />
        </mxCell>
      </root>
    </mxGraphModel>
  </diagram>
</mxfile>
